<svg width="30" height="29" viewBox="0 0 30 29" fill="none" xmlns="http://www.w3.org/2000/svg">
<g id="icon_delivery truck" clip-path="url(#clip0_756_1611)">
<path id="Vector" d="M2.49498 3.62492V2.1145C1.63417 2.1145 0.935547 2.79117 0.935547 3.62492H2.49498ZM16.218 3.62492H17.7774C17.7774 2.79117 17.0788 2.1145 16.218 2.1145V3.62492ZM16.218 10.8749V9.3645C15.8044 9.3645 15.4078 9.52363 15.1153 9.80689C14.8229 10.0902 14.6586 10.4743 14.6586 10.8749H16.218ZM2.49498 5.13533H16.218V2.1145H2.49498V5.13533ZM14.6586 3.62492V22.9583H17.7774V3.62492H14.6586ZM4.05442 20.5416V3.62492H0.935547V20.5416H4.05442ZM16.218 12.3853H22.4557V9.3645H16.218V12.3853ZM25.8865 15.7083V20.5416H29.0054V15.7083H25.8865ZM17.7774 22.9583V10.8749H14.6586V22.9583H17.7774ZM23.1169 23.5987C22.9415 23.7684 22.7037 23.8637 22.4557 23.8637C22.2078 23.8637 21.97 23.7684 21.7945 23.5987L19.5889 25.735C20.3492 26.4714 21.3805 26.8851 22.4557 26.8851C23.531 26.8851 24.5622 26.4714 25.3226 25.735L23.1169 23.5987ZM21.7945 22.3178C21.97 22.1481 22.2078 22.0528 22.4557 22.0528C22.7037 22.0528 22.9415 22.1481 23.1169 22.3178L25.3226 20.1815C24.5622 19.4451 23.531 19.0314 22.4557 19.0314C21.3805 19.0314 20.3492 19.4451 19.5889 20.1815L21.7945 22.3178ZM8.14637 23.5987C7.97094 23.7684 7.73312 23.8637 7.48517 23.8637C7.23722 23.8637 6.99941 23.7684 6.82397 23.5987L4.61831 25.735C5.37867 26.4714 6.4099 26.8851 7.48517 26.8851C8.56044 26.8851 9.59168 26.4714 10.352 25.735L8.14637 23.5987ZM6.82397 22.3178C6.99941 22.1481 7.23722 22.0528 7.48517 22.0528C7.73312 22.0528 7.97094 22.1481 8.14637 22.3178L10.352 20.1815C9.59168 19.4451 8.56044 19.0314 7.48517 19.0314C6.4099 19.0314 5.37867 19.4451 4.61831 20.1815L6.82397 22.3178ZM23.1169 22.3178C23.2044 22.4015 23.2737 22.5013 23.3209 22.6112C23.368 22.7212 23.392 22.8392 23.3914 22.9583H26.5103C26.5109 22.4425 26.4063 21.9316 26.2025 21.4551C25.9987 20.9786 25.6997 20.5457 25.3226 20.1815L23.1169 22.3178ZM23.3914 22.9583C23.3917 23.0773 23.3676 23.1952 23.3205 23.3051C23.2734 23.4151 23.2042 23.5148 23.1169 23.5987L25.3226 25.735C25.6994 25.3706 25.9983 24.9377 26.2021 24.4613C26.4059 23.9848 26.5107 23.474 26.5103 22.9583H23.3914ZM19.9606 21.4478H16.218V24.4687H19.9606V21.4478ZM21.7945 23.5987C21.7073 23.5148 21.6381 23.4151 21.591 23.3051C21.5439 23.1952 21.5198 23.0773 21.5201 22.9583H18.4012C18.4012 23.9612 18.7979 24.9689 19.5889 25.735L21.7945 23.5987ZM21.5201 22.9583C21.5195 22.8392 21.5435 22.7212 21.5906 22.6112C21.6377 22.5013 21.7071 22.4015 21.7945 22.3178L19.5889 20.1815C19.212 20.5459 18.9132 20.9788 18.7094 21.4552C18.5056 21.9317 18.4008 22.4425 18.4012 22.9583H21.5201ZM6.82397 23.5987C6.73673 23.5148 6.66754 23.4151 6.62043 23.3051C6.57331 23.1952 6.54921 23.0773 6.54951 22.9583H3.43064C3.43064 23.9612 3.82736 24.9689 4.61831 25.735L6.82397 23.5987ZM6.54951 22.9583C6.54893 22.8392 6.57291 22.7212 6.62004 22.6112C6.66717 22.5013 6.7365 22.4015 6.82397 22.3178L4.61831 20.1815C4.24147 20.5459 3.94259 20.9788 3.73878 21.4552C3.53498 21.9317 3.43027 22.4425 3.43064 22.9583H6.54951ZM16.218 21.4478H9.98027V24.4687H16.218V21.4478ZM8.14637 22.3178C8.23384 22.4015 8.30317 22.5013 8.3503 22.6112C8.39744 22.7212 8.42141 22.8392 8.42083 22.9583H11.5397C11.5397 21.9553 11.143 20.9476 10.352 20.1815L8.14637 22.3178ZM8.42083 22.9583C8.42114 23.0773 8.39703 23.1952 8.34992 23.3051C8.3028 23.4151 8.23362 23.5148 8.14637 23.5987L10.352 25.735C10.7289 25.3706 11.0278 24.9377 11.2316 24.4613C11.4354 23.9848 11.5401 23.474 11.5397 22.9583H8.42083ZM25.8865 20.5416C25.8865 20.7819 25.7879 21.0124 25.6125 21.1824C25.437 21.3524 25.199 21.4478 24.9508 21.4478V24.4687C26.0262 24.4687 27.0575 24.0549 27.8178 23.3185C28.5782 22.582 29.0054 21.5831 29.0054 20.5416H25.8865ZM22.4557 12.3853C23.3656 12.3853 24.2383 12.7354 24.8817 13.3586C25.525 13.9818 25.8865 14.827 25.8865 15.7083H29.0054C29.0054 12.2041 26.0736 9.3645 22.4557 9.3645V12.3853ZM0.935547 20.5416C0.935547 21.5831 1.36272 22.582 2.12309 23.3185C2.88346 24.0549 3.91475 24.4687 4.99008 24.4687V21.4478C4.74192 21.4478 4.50394 21.3524 4.32846 21.1824C4.15299 21.0124 4.05442 20.7819 4.05442 20.5416H0.935547Z" fill="#E51428"/>
</g>
<defs>
<clipPath id="clip0_756_1611">
<rect width="29.9411" height="29" fill="white"/>
</clipPath>
</defs>
</svg>
