<svg width="30" height="29" viewBox="0 0 30 29" fill="none" xmlns="http://www.w3.org/2000/svg">
<g id="icon_&#208;&#176;&#208;&#186;&#209;&#134;&#208;&#184;&#208;&#184;">
<path id="Vector" d="M23.5501 3.625H6.19767C4.82187 3.625 3.71875 4.70042 3.71875 6.04167V22.9583C3.71875 23.5993 3.97992 24.214 4.44481 24.6672C4.9097 25.1204 5.54022 25.375 6.19767 25.375H23.5501C24.9259 25.375 26.029 24.2996 26.029 22.9583V6.04167C26.029 5.40073 25.7678 4.78604 25.303 4.33283C24.8381 3.87961 24.2076 3.625 23.5501 3.625ZM23.5501 22.9583H6.19767V6.04167H23.5501V22.9583ZM21.0712 18.3908C21.0712 19.575 20.0796 20.5417 18.8649 20.5417C17.6503 20.5417 16.6711 19.575 16.6711 18.3908C16.6711 17.2067 17.6503 16.2521 18.8649 16.2521C20.0796 16.2521 21.0712 17.2067 21.0712 18.3908ZM10.5358 20.5779L8.67659 18.7654L19.2492 8.45833L21.1084 10.2708L10.5358 20.5779ZM8.73856 10.6696C8.73856 9.47333 9.71773 8.51875 10.9448 8.51875C12.1595 8.51875 13.1386 9.47333 13.1386 10.6696C13.1386 11.8538 12.1595 12.8083 10.9448 12.8083C9.71773 12.8083 8.73856 11.8538 8.73856 10.6696Z" fill="#E51428"/>
</g>
</svg>
