<svg width="65" height="65" viewBox="0 0 65 65" fill="none" xmlns="http://www.w3.org/2000/svg">
<g id="ph:list-bold">
<path id="Vector" d="M57.8906 32.5C57.8906 33.3081 57.5696 34.0831 56.9982 34.6545C56.4268 35.2259 55.6518 35.5469 54.8438 35.5469H10.1562C9.34817 35.5469 8.57318 35.2259 8.00178 34.6545C7.43038 34.0831 7.10938 33.3081 7.10938 32.5C7.10938 31.6919 7.43038 30.9169 8.00178 30.3455C8.57318 29.7741 9.34817 29.4531 10.1562 29.4531H54.8438C55.6518 29.4531 56.4268 29.7741 56.9982 30.3455C57.5696 30.9169 57.8906 31.6919 57.8906 32.5ZM10.1562 19.2969H54.8438C55.6518 19.2969 56.4268 18.9759 56.9982 18.4045C57.5696 17.8331 57.8906 17.0581 57.8906 16.25C57.8906 15.4419 57.5696 14.6669 56.9982 14.0955C56.4268 13.5241 55.6518 13.2031 54.8438 13.2031H10.1562C9.34817 13.2031 8.57318 13.5241 8.00178 14.0955C7.43038 14.6669 7.10938 15.4419 7.10938 16.25C7.10938 17.0581 7.43038 17.8331 8.00178 18.4045C8.57318 18.9759 9.34817 19.2969 10.1562 19.2969ZM54.8438 45.7031H10.1562C9.34817 45.7031 8.57318 46.0241 8.00178 46.5955C7.43038 47.1669 7.10938 47.9419 7.10938 48.75C7.10938 49.5581 7.43038 50.3331 8.00178 50.9045C8.57318 51.4759 9.34817 51.7969 10.1562 51.7969H54.8438C55.6518 51.7969 56.4268 51.4759 56.9982 50.9045C57.5696 50.3331 57.8906 49.5581 57.8906 48.75C57.8906 47.9419 57.5696 47.1669 56.9982 46.5955C56.4268 46.0241 55.6518 45.7031 54.8438 45.7031Z" fill="white"/>
</g>
</svg>
