<svg width="30" height="30" viewBox="0 0 30 30" fill="none" xmlns="http://www.w3.org/2000/svg">
<g id="mingcute:truck-fill" clip-path="url(#clip0_530_2337)">
<g id="Group">
<path id="Vector" d="M18.75 5C19.413 5 20.0489 5.26339 20.5178 5.73223C20.9866 6.20107 21.25 6.83696 21.25 7.5V8.75H23.15C23.5247 8.75005 23.8946 8.83432 24.2324 8.9966C24.5701 9.15887 24.8671 9.39499 25.1012 9.6875L26.9513 12.0012C27.3064 12.4446 27.4999 12.9957 27.5 13.5637V18.75C27.5 19.413 27.2366 20.0489 26.7678 20.5178C26.2989 20.9866 25.663 21.25 25 21.25H23.75C23.75 22.2446 23.3549 23.1984 22.6517 23.9017C21.9484 24.6049 20.9946 25 20 25C19.0054 25 18.0516 24.6049 17.3483 23.9017C16.6451 23.1984 16.25 22.2446 16.25 21.25H12.5C12.5 21.7425 12.403 22.2301 12.2145 22.6851C12.0261 23.14 11.7499 23.5534 11.4017 23.9017C11.0534 24.2499 10.64 24.5261 10.1851 24.7145C9.73009 24.903 9.24246 25 8.75 25C8.25754 25 7.76991 24.903 7.31494 24.7145C6.85997 24.5261 6.44657 24.2499 6.09835 23.9017C5.75013 23.5534 5.47391 23.14 5.28545 22.6851C5.097 22.2301 5 21.7425 5 21.25C4.33696 21.25 3.70107 20.9866 3.23223 20.5178C2.76339 20.0489 2.5 19.413 2.5 18.75V7.5C2.5 6.83696 2.76339 6.20107 3.23223 5.73223C3.70107 5.26339 4.33696 5 5 5H18.75ZM8.75 20C8.41848 20 8.10054 20.1317 7.86612 20.3661C7.6317 20.6005 7.5 20.9185 7.5 21.25C7.5 21.5815 7.6317 21.8995 7.86612 22.1339C8.10054 22.3683 8.41848 22.5 8.75 22.5C9.08152 22.5 9.39946 22.3683 9.63388 22.1339C9.8683 21.8995 10 21.5815 10 21.25C10 20.9185 9.8683 20.6005 9.63388 20.3661C9.39946 20.1317 9.08152 20 8.75 20ZM20 20C19.6685 20 19.3505 20.1317 19.1161 20.3661C18.8817 20.6005 18.75 20.9185 18.75 21.25C18.75 21.5815 18.8817 21.8995 19.1161 22.1339C19.3505 22.3683 19.6685 22.5 20 22.5C20.3315 22.5 20.6495 22.3683 20.8839 22.1339C21.1183 21.8995 21.25 21.5815 21.25 21.25C21.25 20.9185 21.1183 20.6005 20.8839 20.3661C20.6495 20.1317 20.3315 20 20 20ZM23.15 11.25H21.25V16.25H25V13.5625L23.15 11.25Z" fill="#E51428"/>
</g>
</g>
<defs>
<clipPath id="clip0_530_2337">
<rect width="30" height="30" fill="white"/>
</clipPath>
</defs>
</svg>
