<svg width="92" height="84" viewBox="0 0 92 84" fill="none" xmlns="http://www.w3.org/2000/svg">
<g id="Group">
<path id="Vector" d="M4.33398 25.3334H16.834M4.33398 42H25.1673" stroke="#E51428" stroke-width="5" stroke-linecap="round" stroke-linejoin="round"/>
<path id="Vector_2" d="M4.33366 4.50004V0.333374C3.22859 0.333374 2.16878 0.772361 1.38738 1.55376C0.605979 2.33516 0.166992 3.39497 0.166992 4.50004H4.33366ZM50.167 4.50004H54.3337C54.3337 3.39497 53.8947 2.33516 53.1133 1.55376C52.3319 0.772361 51.2721 0.333374 50.167 0.333374V4.50004ZM50.167 29.5V25.3334C49.0619 25.3334 48.0021 25.7724 47.2207 26.5538C46.4393 27.3352 46.0003 28.395 46.0003 29.5H50.167ZM4.33366 8.66671H50.167V0.333374H4.33366V8.66671ZM46.0003 4.50004V71.1667H54.3337V4.50004H46.0003ZM8.50033 62.8334V4.50004H0.166992V62.8334H8.50033ZM50.167 33.6667H71.0003V25.3334H50.167V33.6667ZM83.5003 46.1667V62.8334H91.8337V46.1667H83.5003ZM54.3337 71.1667V29.5H46.0003V71.1667H54.3337ZM73.9462 74.1125C73.1648 74.8937 72.1052 75.3325 71.0003 75.3325C69.8955 75.3325 68.8359 74.8937 68.0545 74.1125L62.1628 80.0042C64.5069 82.3476 67.6858 83.664 71.0003 83.664C74.3149 83.664 77.4937 82.3476 79.8378 80.0042L73.9462 74.1125ZM68.0545 68.2209C68.8359 67.4397 69.8955 67.0009 71.0003 67.0009C72.1052 67.0009 73.1648 67.4397 73.9462 68.2209L79.8378 62.3292C77.4937 59.9858 74.3149 58.6694 71.0003 58.6694C67.6858 58.6694 64.5069 59.9858 62.1628 62.3292L68.0545 68.2209ZM23.9462 74.1125C23.1648 74.8937 22.1052 75.3325 21.0003 75.3325C19.8955 75.3325 18.8359 74.8937 18.0545 74.1125L12.1628 80.0042C14.5069 82.3476 17.6858 83.664 21.0003 83.664C24.3149 83.664 27.4937 82.3476 29.8378 80.0042L23.9462 74.1125ZM18.0545 68.2209C18.8359 67.4397 19.8955 67.0009 21.0003 67.0009C22.1052 67.0009 23.1648 67.4397 23.9462 68.2209L29.8378 62.3292C27.4937 59.9858 24.3149 58.6694 21.0003 58.6694C17.6858 58.6694 14.5069 59.9858 12.1628 62.3292L18.0545 68.2209ZM73.9462 68.2209C74.7628 69.0334 75.167 70.0959 75.167 71.1667H83.5003C83.5003 67.975 82.2795 64.7667 79.8378 62.3292L73.9462 68.2209ZM75.167 71.1667C75.1683 71.714 75.061 72.2562 74.8514 72.7618C74.6419 73.2675 74.3342 73.7265 73.9462 74.1125L79.8378 80.0042C80.9998 78.8446 81.9214 77.467 82.5499 75.9505C83.1783 74.434 83.5013 72.8083 83.5003 71.1667H75.167ZM62.667 67H50.167V75.3334H62.667V67ZM68.0545 74.1125C67.6664 73.7265 67.3588 73.2675 67.1492 72.7618C66.9397 72.2562 66.8324 71.714 66.8337 71.1667H58.5003C58.5003 74.3584 59.7212 77.5667 62.1628 80.0042L68.0545 74.1125ZM66.8337 71.1667C66.8315 70.6192 66.9383 70.0768 67.1479 69.571C67.3575 69.0653 67.6657 68.6063 68.0545 68.2209L62.1628 62.3292C61.0009 63.4888 60.0793 64.8664 59.4508 66.3829C58.8223 67.8995 58.4993 69.5251 58.5003 71.1667H66.8337ZM18.0545 74.1125C17.6664 73.7265 17.3588 73.2675 17.1492 72.7618C16.9397 72.2562 16.8324 71.714 16.8337 71.1667H8.50033C8.50033 74.3584 9.72116 77.5667 12.1628 80.0042L18.0545 74.1125ZM16.8337 71.1667C16.8315 70.6192 16.9383 70.0768 17.1479 69.571C17.3575 69.0653 17.6657 68.6063 18.0545 68.2209L12.1628 62.3292C11.0009 63.4888 10.0793 64.8664 9.4508 66.3829C8.82231 67.8995 8.49931 69.5251 8.50033 71.1667H16.8337ZM50.167 67H29.3337V75.3334H50.167V67ZM23.9462 68.2209C24.7628 69.0334 25.167 70.0959 25.167 71.1667H33.5003C33.5003 67.975 32.2795 64.7667 29.8378 62.3292L23.9462 68.2209ZM25.167 71.1667C25.1682 71.714 25.061 72.2562 24.8515 72.7618C24.6419 73.2675 24.3342 73.7265 23.9462 74.1125L29.8378 80.0042C30.9998 78.8446 31.9214 77.467 32.5499 75.9505C33.1783 74.434 33.5013 72.8083 33.5003 71.1667H25.167ZM83.5003 62.8334C83.5003 63.9384 83.0613 64.9983 82.2799 65.7797C81.4985 66.5611 80.4387 67 79.3337 67V75.3334C82.6489 75.3334 85.8283 74.0164 88.1725 71.6722C90.5167 69.328 91.8337 66.1486 91.8337 62.8334H83.5003ZM71.0003 33.6667C74.3155 33.6667 77.495 34.9837 79.8392 37.3279C82.1834 39.6721 83.5003 42.8515 83.5003 46.1667H91.8337C91.8337 43.4308 91.2948 40.7218 90.2478 38.1941C89.2009 35.6665 87.6663 33.3699 85.7317 31.4353C83.7972 29.5008 81.5005 27.9662 78.9729 26.9192C76.4453 25.8722 73.7362 25.3334 71.0003 25.3334V33.6667ZM0.166992 62.8334C0.166992 66.1486 1.48395 69.328 3.82816 71.6722C6.17236 74.0164 9.35179 75.3334 12.667 75.3334V67C11.5619 67 10.5021 66.5611 9.72071 65.7797C8.93931 64.9983 8.50033 63.9384 8.50033 62.8334H0.166992Z" fill="#E51428"/>
</g>
</svg>
