<svg width="30" height="30" viewBox="0 0 30 30" fill="none" xmlns="http://www.w3.org/2000/svg">
<g id="icon_house">
<path id="Vector" d="M25.9641 11.8184L16.5949 2.97421L16.5762 2.95664C16.1456 2.56259 15.5831 2.34406 14.9994 2.34406C14.4157 2.34406 13.8532 2.56259 13.4227 2.95664L13.4027 2.97421L4.03594 11.8184C3.7984 12.0381 3.60877 12.3046 3.47891 12.601C3.34905 12.8974 3.28176 13.2174 3.28125 13.541V24.375C3.28125 24.9966 3.52818 25.5927 3.96772 26.0323C4.40726 26.4718 5.0034 26.7187 5.625 26.7187H11.25C11.8716 26.7187 12.4677 26.4718 12.9073 26.0323C13.3468 25.5927 13.5938 24.9966 13.5938 24.375V19.2187H16.4062V24.375C16.4062 24.9966 16.6532 25.5927 17.0927 26.0323C17.5323 26.4718 18.1284 26.7187 18.75 26.7187H24.375C24.9966 26.7187 25.5927 26.4718 26.0323 26.0323C26.4718 25.5927 26.7188 24.9966 26.7188 24.375V13.541C26.7182 13.2174 26.6509 12.8974 26.5211 12.601C26.3912 12.3046 26.2016 12.0381 25.9641 11.8184ZM23.9062 23.9062H19.2188V18.75C19.2188 18.4422 19.1581 18.1374 19.0403 17.8531C18.9226 17.5687 18.7499 17.3104 18.5323 17.0927C18.3146 16.8751 18.0563 16.7024 17.7719 16.5847C17.4876 16.4669 17.1828 16.4062 16.875 16.4062H13.125C12.5034 16.4062 11.9073 16.6532 11.4677 17.0927C11.0282 17.5323 10.7812 18.1284 10.7812 18.75V23.9062H6.09375V13.7437L15 5.33554L23.9062 13.7437V23.9062Z" fill="#E51428"/>
</g>
</svg>
