<svg width="16" height="16" viewBox="0 0 16 16" fill="none" xmlns="http://www.w3.org/2000/svg">
<g id="icon_location" clip-path="url(#clip0_804_318)">
<path id="Vector" d="M8.00039 16C8.00039 16 2.40039 8.696 2.40039 5.6C2.40039 4.8646 2.54524 4.1364 2.82667 3.45697C3.10809 2.77755 3.52058 2.16021 4.04059 1.6402C4.5606 1.12019 5.17794 0.707701 5.85736 0.426275C6.53679 0.144848 7.26499 0 8.00039 0C8.73579 0 9.46399 0.144848 10.1434 0.426275C10.8228 0.707701 11.4402 1.12019 11.9602 1.6402C12.4802 2.16021 12.8927 2.77755 13.1741 3.45697C13.4555 4.1364 13.6004 4.8646 13.6004 5.6C13.6004 8.696 8.00039 16 8.00039 16ZM8.00039 7.2C8.42474 7.2 8.8317 7.03143 9.13176 6.73137C9.43182 6.43131 9.60039 6.02435 9.60039 5.6C9.60039 5.17565 9.43182 4.76869 9.13176 4.46863C8.8317 4.16857 8.42474 4 8.00039 4C7.57604 4 7.16908 4.16857 6.86902 4.46863C6.56896 4.76869 6.40039 5.17565 6.40039 5.6C6.40039 6.02435 6.56896 6.43131 6.86902 6.73137C7.16908 7.03143 7.57604 7.2 8.00039 7.2Z" fill="#ADA6A6"/>
</g>
<defs>
<clipPath id="clip0_804_318">
<rect width="16" height="16" fill="white"/>
</clipPath>
</defs>
</svg>
