<svg width="60" height="60" viewBox="0 0 60 60" fill="none" xmlns="http://www.w3.org/2000/svg">
<g id="icon_credit_card">
<path id="Vector" d="M42.5 32.5V12.5C42.5 11.1739 41.9732 9.90215 41.0355 8.96447C40.0979 8.02678 38.8261 7.5 37.5 7.5H32.5M32.5 7.5H17.5C16.1739 7.5 14.9021 8.02678 13.9645 8.96447C13.0268 9.90215 12.5 11.1739 12.5 12.5V42.5C12.5 43.8261 13.0268 45.0979 13.9645 46.0355C14.9021 46.9732 16.1739 47.5 17.5 47.5H35M32.5 7.5V33.75M22.5 17.5V25" stroke="#E51428" stroke-width="5" stroke-linecap="round" stroke-linejoin="round"/>
<path id="Vector_2" d="M52.5002 55V37.25C52.4997 34.9515 52.0464 32.6755 51.1662 30.5522C50.286 28.4289 48.9961 26.4997 47.3702 24.875L42.4952 20V36.4675C42.4952 38.6925 39.8027 39.81 38.2277 38.235L34.9902 35C33.7402 33.75 30.7377 33 28.7352 35C26.7352 37 27.4852 40 28.7352 41.25L42.4927 55" stroke="#E51428" stroke-width="5" stroke-linecap="round" stroke-linejoin="round"/>
</g>
</svg>
