<svg width="130" height="65" viewBox="0 0 130 65" fill="none" xmlns="http://www.w3.org/2000/svg">
<g clip-path="url(#clip0_672_1195)">
<path d="M92.5 28.9375C99.4085 28.9375 105 23.36 105 16.4688C105 9.57754 99.4085 4 92.5 4C85.5915 4 80 9.57754 80 16.4688C80 23.36 85.5915 28.9375 92.5 28.9375ZM92.5 11.125C95.4576 11.125 97.8571 13.5186 97.8571 16.4688C97.8571 19.4189 95.4576 21.8125 92.5 21.8125C89.5424 21.8125 87.1429 19.4189 87.1429 16.4688C87.1429 13.5186 89.5424 11.125 92.5 11.125ZM117.5 36.0625C110.592 36.0625 105 41.64 105 48.5312C105 55.4225 110.592 61 117.5 61C124.408 61 130 55.4225 130 48.5312C130 41.64 124.408 36.0625 117.5 36.0625ZM117.5 53.875C114.542 53.875 112.143 51.4814 112.143 48.5312C112.143 45.5811 114.542 43.1875 117.5 43.1875C120.458 43.1875 122.857 45.5811 122.857 48.5312C122.857 51.4814 120.458 53.875 117.5 53.875ZM123.783 4.02227L127.31 4.01113C129.475 4 130.759 6.43809 129.509 8.21934L88.6384 59.8422C88.392 60.1928 88.0645 60.479 87.6838 60.6766C87.303 60.8743 86.8801 60.9776 86.4509 60.9777L82.7232 60.9889C80.5469 60.9889 79.2746 58.5508 80.5246 56.7807L121.596 5.15781C122.098 4.44531 122.913 4.02227 123.783 4.02227Z" fill="#E51428"/>
</g>
<path d="M22.5691 7.67358H2.70801V17.6041H12.6386V57.3264H22.5691V7.67358ZM52.3608 7.67358H42.4302C36.9684 7.67358 32.4997 12.1423 32.4997 17.6041V47.3958C32.4997 50.0296 33.5459 52.5554 35.4083 54.4178C37.2706 56.2801 39.7965 57.3264 42.4302 57.3264H52.3608C57.8722 57.3264 62.2913 52.9073 62.2913 47.3958V17.6041C62.2913 14.9704 61.2451 12.4445 59.3828 10.5822C57.5204 8.71984 54.9945 7.67358 52.3608 7.67358ZM52.3608 47.3958H42.4302V17.6041H52.3608V47.3958Z" fill="#E51428"/>
<defs>
<clipPath id="clip0_672_1195">
<rect width="50" height="57" fill="white" transform="translate(80 4)"/>
</clipPath>
</defs>
</svg>
