<svg width="15" height="15" viewBox="0 0 15 15" fill="none" xmlns="http://www.w3.org/2000/svg">
<g id="icon_phone">
<g id="Group">
<path id="Vector" fill-rule="evenodd" clip-rule="evenodd" d="M10.3459 12.4797C9.44585 12.4465 6.89523 12.094 4.22398 9.4234C1.55335 6.75215 1.20148 4.20215 1.16773 3.30153C1.11773 1.92903 2.16898 0.595903 3.38335 0.0752776C3.52959 0.0121319 3.68973 -0.0119096 3.84806 0.00551225C4.00639 0.0229341 4.15747 0.0812207 4.28648 0.174653C5.28648 0.903403 5.97648 2.0059 6.56898 2.87278C6.69934 3.06323 6.75508 3.29499 6.72558 3.5239C6.69607 3.75281 6.58338 3.96286 6.40898 4.11403L5.1896 5.01965C5.13069 5.06219 5.08922 5.12467 5.0729 5.19548C5.05658 5.26629 5.06651 5.34061 5.10085 5.40465C5.3771 5.90653 5.86835 6.65403 6.43085 7.21653C6.99398 7.77903 7.77648 8.30278 8.31335 8.61028C8.38067 8.64806 8.4599 8.65863 8.53476 8.6398C8.60963 8.62096 8.67443 8.57417 8.71585 8.50903L9.5096 7.3009C9.65553 7.10706 9.87081 6.9772 10.1103 6.93852C10.3499 6.89984 10.5951 6.95534 10.7946 7.0934C11.674 7.70215 12.7002 8.38028 13.4515 9.34215C13.5525 9.47209 13.6168 9.62678 13.6375 9.79005C13.6583 9.95332 13.6349 10.1192 13.5696 10.2703C13.0465 11.4909 11.7227 12.5303 10.3459 12.4797Z" fill="#E51428"/>
</g>
</g>
</svg>
