<svg width="17" height="18" viewBox="0 0 17 18" fill="none" xmlns="http://www.w3.org/2000/svg">
<g id="icon_arrow">
<path id="Vector" d="M11.2844 9.38462L5.36311 15.0265C5.26431 15.1207 5.13305 15.1732 4.99655 15.1732C4.86005 15.1732 4.72879 15.1207 4.62999 15.0265L4.62361 15.0201C4.57555 14.9745 4.53728 14.9195 4.51113 14.8586C4.48497 14.7977 4.47149 14.7321 4.47149 14.6658C4.47149 14.5995 4.48497 14.5339 4.51113 14.473C4.53728 14.412 4.57555 14.3571 4.62361 14.3114L10.1996 8.99893L4.62361 3.68855C4.57555 3.64289 4.53728 3.58794 4.51113 3.52702C4.48498 3.4661 4.47149 3.4005 4.47149 3.33421C4.47149 3.26792 4.48498 3.20232 4.51113 3.1414C4.53728 3.08049 4.57555 3.02553 4.62361 2.97987L4.62999 2.97349C4.72879 2.87931 4.86005 2.82676 4.99655 2.82676C5.13305 2.82676 5.26431 2.87931 5.36311 2.97349L11.2844 8.61537C11.3365 8.66498 11.378 8.72466 11.4063 8.79077C11.4346 8.85689 11.4492 8.92806 11.4492 8.99999C11.4492 9.07192 11.4346 9.1431 11.4063 9.20921C11.378 9.27533 11.3365 9.335 11.2844 9.38462Z" fill="#505050"/>
</g>
</svg>
