<svg width="16" height="17" viewBox="0 0 16 17" fill="none" xmlns="http://www.w3.org/2000/svg">
<g id="icon_arrow_down">
<path id="Vector" fill-rule="evenodd" clip-rule="evenodd" d="M0.822491 5.19282C0.883296 5.12188 0.957488 5.06361 1.04082 5.02135C1.12416 4.97909 1.21501 4.95367 1.30817 4.94653C1.40134 4.9394 1.495 4.9507 1.58379 4.97978C1.67259 5.00886 1.75479 5.05516 1.82569 5.11602L8.00036 10.4079L14.175 5.11602C14.319 5.00046 14.5022 4.94541 14.6861 4.96251C14.8699 4.97961 15.0398 5.06751 15.16 5.20764C15.2802 5.34776 15.3412 5.52913 15.3301 5.7134C15.3189 5.89767 15.2366 6.0704 15.1005 6.19507L8.46308 11.8843C8.3342 11.9947 8.17008 12.0554 8.00036 12.0554C7.83064 12.0554 7.66652 11.9947 7.53764 11.8843L0.900243 6.19507C0.75724 6.07229 0.668826 5.89777 0.654424 5.70984C0.640023 5.52192 0.700814 5.33596 0.823439 5.19282H0.822491Z" fill="#505050"/>
</g>
</svg>
