<svg width="30" height="30" viewBox="0 0 30 30" fill="none" xmlns="http://www.w3.org/2000/svg">
<g id="icon_case">
<path id="Vector" d="M11.2337 20H18.723C19.0767 20 19.3733 19.88 19.613 19.64C19.8526 19.4 19.972 19.1033 19.9712 18.75V13.75C19.9712 13.3958 19.8514 13.0988 19.6117 12.8588C19.3721 12.6188 19.0758 12.4992 18.723 12.5H17.4748V11.25C17.4748 10.8958 17.355 10.5988 17.1153 10.3588C16.8757 10.1188 16.5794 9.99917 16.2266 10H13.7302C13.3765 10 13.0798 10.12 12.8402 10.36C12.6005 10.6 12.4811 10.8967 12.4819 11.25V12.5H11.2337C10.8801 12.5 10.5834 12.62 10.3438 12.86C10.1041 13.1 9.98469 13.3967 9.98553 13.75V18.75C9.98553 19.1042 10.1054 19.4013 10.345 19.6413C10.5847 19.8813 10.8809 20.0008 11.2337 20ZM13.7302 12.5V11.25H16.2266V12.5H13.7302ZM9.98553 23.75C7.55151 23.75 5.48656 22.9008 3.79065 21.2025C2.09475 19.5042 1.24722 17.4367 1.24805 15C1.24805 12.5625 2.096 10.4946 3.7919 8.79625C5.4878 7.09792 7.55235 6.24917 9.98553 6.25H19.9712C22.4052 6.25 24.4702 7.09917 26.1661 8.7975C27.862 10.4958 28.7095 12.5633 28.7087 15C28.7087 17.4375 27.8607 19.5054 26.1648 21.2038C24.4689 22.9021 22.4044 23.7508 19.9712 23.75H9.98553ZM9.98553 21.25H19.9712C21.6979 21.25 23.17 20.6404 24.3874 19.4213C25.6048 18.2021 26.2131 16.7283 26.2123 15C26.2123 13.2708 25.6036 11.7967 24.3861 10.5775C23.1687 9.35833 21.6971 8.74917 19.9712 8.75H9.98553C8.25883 8.75 6.78678 9.35958 5.56935 10.5788C4.35193 11.7979 3.74364 13.2717 3.74447 15C3.74447 16.7292 4.35318 18.2033 5.5706 19.4225C6.78802 20.6417 8.25967 21.2508 9.98553 21.25Z" fill="#E51428"/>
</g>
</svg>
