<svg width="29" height="29" viewBox="0 0 29 29" fill="none" xmlns="http://www.w3.org/2000/svg">
<g id="icon_documents">
<path id="Vector" fill-rule="evenodd" clip-rule="evenodd" d="M24.3915 10.875V20.8438H9.9372V2.71875H16.261V7.70312C16.261 9.454 17.6775 10.875 19.4229 10.875H24.3915ZM18.9712 2.93806L24.1729 8.15625H19.4229C19.3031 8.15625 19.1882 8.10851 19.1035 8.02353C19.0187 7.93856 18.9712 7.8233 18.9712 7.70312V2.93806ZM9.03381 0C8.55462 0 8.09505 0.190959 7.75621 0.530869C7.41737 0.870779 7.22701 1.3318 7.22701 1.8125V5.4375H4.06513C2.81844 5.4375 1.80664 6.4525 1.80664 7.70312V26.7344C1.80664 27.985 2.81844 29 4.06513 29H18.9712C20.2178 29 21.2296 27.985 21.2296 26.7344V23.7075C21.2298 23.6591 21.2274 23.6107 21.2224 23.5625H25.2949C25.7741 23.5625 26.2337 23.3715 26.5725 23.0316C26.9114 22.6917 27.1017 22.2307 27.1017 21.75V8.00037C27.1016 7.51971 26.9112 7.05877 26.5723 6.71894L20.4039 0.531063C20.0652 0.191129 19.6057 0.000102655 19.1265 0H9.03381ZM7.22701 21.75V8.15625H4.51683V26.2812H18.5195V23.7075C18.5195 23.6586 18.5213 23.6096 18.5267 23.5625H9.03381C8.55462 23.5625 8.09505 23.3715 7.75621 23.0316C7.41737 22.6917 7.22701 22.2307 7.22701 21.75Z" fill="#E51428"/>
</g>
</svg>
