<svg width="30" height="30" viewBox="0 0 30 30" fill="none" xmlns="http://www.w3.org/2000/svg">
<g id="icon_hands">
<path id="Vector" d="M19.6875 2.84155L19.0725 3.51562C17.6953 5.03155 16.56 5.70937 15.615 6.1528C14.67 6.5953 13.8759 6.72749 13.0959 7.32468C12.2644 7.96218 11.0559 9.18468 10.5469 11.3672C9.45563 11.6053 8.65688 12.0234 8.02688 12.5681C7.40438 13.1062 6.93563 13.7184 6.35812 14.385C6.35344 14.3925 6.36094 14.4066 6.35812 14.4141C5.52938 15.3666 4.80469 16.3922 3.39844 16.9341L2.8125 17.1684V27.1875H20.6841C21.7087 27.1322 22.4194 26.4225 22.8516 25.7222C23.2828 25.0228 23.5219 24.2653 23.6428 23.6428C23.9541 22.0566 24.5212 17.49 24.5212 17.49L24.5513 17.4028V17.3147C24.5212 16.6809 24.2606 16.1428 23.9353 15.6441L24.99 12.51L26.6606 9.98999L27.1294 9.31593L26.5134 8.75999L20.3616 3.42749L19.6875 2.84155ZM19.7466 5.41968L24.6384 9.66843L23.3494 11.5716L23.2622 11.6606L23.2322 11.8069L22.3828 14.3259C21.9394 14.1431 21.4828 14.0147 20.9766 14.0334H20.9175L15 14.0625H14.0625V17.6953C13.9312 18.7172 13.3631 19.1128 12.6562 19.395C12.4219 19.4897 12.3928 19.4381 12.1875 19.4822V14.0344C12.0337 10.5591 13.2712 9.55874 14.2387 8.81905C14.5059 8.61374 15.2887 8.37655 16.4062 7.85249C17.34 7.4128 18.5006 6.62437 19.7466 5.41968ZM10.3716 13.4766C10.3678 13.6894 10.3012 13.8394 10.3125 14.0625V21.5625H11.25C11.25 21.5625 12.2531 21.5512 13.3303 21.1228C14.4066 20.6944 15.7069 19.6912 15.9375 17.9297V15.9375L20.9766 15.9084H21.0056C21.4172 15.8859 21.8209 16.0273 22.1284 16.3018C22.4358 16.5762 22.6221 16.9614 22.6462 17.3728C22.6425 17.3878 22.5994 17.7356 22.5881 17.8125H18.75V19.6875H22.3538C22.2544 20.4122 22.1634 20.8669 22.0603 21.5625H18.75V23.4375H21.7678C21.657 23.8911 21.4791 24.3255 21.24 24.7266C20.9841 25.1437 20.7638 25.3012 20.5669 25.3125H4.6875V18.3103C6.20719 17.5041 7.15219 16.3444 7.76344 15.645C8.39719 14.9194 8.83219 14.37 9.25781 14.0044C9.53625 13.7662 9.97219 13.6303 10.3716 13.4766Z" fill="#E51428"/>
</g>
</svg>
