<svg width="30" height="30" viewBox="0 0 30 30" fill="none" xmlns="http://www.w3.org/2000/svg">
<g id="icon_label">
<path id="Vector" d="M25.502 2.8125H18.3008C18.0769 2.81234 17.862 2.90081 17.7031 3.0586L3.30664 17.4551C2.99142 17.7719 2.81445 18.2006 2.81445 18.6475C2.81445 19.0944 2.99142 19.5231 3.30664 19.8398L10.1621 26.6953C10.4789 27.0105 10.9076 27.1875 11.3545 27.1875C11.8014 27.1875 12.2301 27.0105 12.5469 26.6953L26.9375 12.3047C27.0953 12.1458 27.1838 11.9309 27.1836 11.707V4.5C27.1847 4.27859 27.142 4.05914 27.0579 3.8543C26.9739 3.64946 26.8501 3.46326 26.6938 3.30642C26.5375 3.14958 26.3518 3.0252 26.1472 2.94044C25.9427 2.85567 25.7234 2.81219 25.502 2.8125Z" stroke="#E51428" stroke-width="2" stroke-linecap="round" stroke-linejoin="round"/>
<path id="Vector_2" d="M22.5 9.375C22.1292 9.375 21.7666 9.26503 21.4583 9.05901C21.15 8.85298 20.9096 8.56014 20.7677 8.21753C20.6258 7.87492 20.5887 7.49792 20.661 7.13421C20.7334 6.77049 20.912 6.4364 21.1742 6.17418C21.4364 5.91195 21.7705 5.73338 22.1342 5.66103C22.4979 5.58868 22.8749 5.62581 23.2175 5.76773C23.5601 5.90964 23.853 6.14996 24.059 6.45831C24.265 6.76665 24.375 7.12916 24.375 7.5C24.375 7.99728 24.1775 8.4742 23.8258 8.82583C23.4742 9.17746 22.9973 9.375 22.5 9.375Z" fill="#E51428"/>
</g>
</svg>
