<svg width="22" height="27" viewBox="0 0 22 27" fill="none" xmlns="http://www.w3.org/2000/svg">
<g id="Group">
<path id="Vector" d="M17.2505 9V6.5C17.2505 4.1425 17.2505 2.965 16.518 2.2325C15.7855 1.5 14.608 1.5 12.2505 1.5H9.75049C7.39299 1.5 6.21549 1.5 5.48299 2.2325C4.75049 2.965 4.75049 4.1425 4.75049 6.5V9" stroke="#E51428" stroke-width="1.875"/>
<path id="Vector_2" d="M9.20434 6.22875C9.755 5.92854 10.3722 5.77124 10.9993 5.77124C11.6265 5.77124 12.2437 5.92854 12.7943 6.22875L18.7868 9.49625C19.3785 9.81879 19.8722 10.2948 20.2163 10.8742C20.5603 11.4535 20.7418 12.1149 20.7418 12.7888V18.9613C20.7418 19.6351 20.5603 20.2965 20.2163 20.8758C19.8722 21.4552 19.3785 21.9312 18.7868 22.2538L12.7943 25.5213C12.2437 25.8215 11.6265 25.9788 10.9993 25.9788C10.3722 25.9788 9.755 25.8215 9.20434 25.5213L3.21059 22.2538C2.6192 21.9311 2.12567 21.455 1.78188 20.8756C1.43808 20.2962 1.25671 19.635 1.25684 18.9613V12.7875C1.25671 12.1138 1.43808 11.4525 1.78188 10.8731C2.12567 10.2938 2.6192 9.8177 3.21059 9.495L9.20434 6.22875Z" stroke="#E51428" stroke-width="1.875"/>
<path id="Vector_3" d="M9.9309 13.4037C10.4059 12.5512 10.6434 12.125 10.9984 12.125C11.3534 12.125 11.5909 12.5512 12.0659 13.4037L12.1884 13.6238C12.3234 13.8663 12.3909 13.9862 12.4959 14.0675C12.6021 14.1462 12.7334 14.1763 12.9959 14.2363L13.2334 14.29C14.1559 14.4988 14.6171 14.6025 14.7271 14.9563C14.8371 15.3088 14.5221 15.6762 13.8934 16.4112L13.7309 16.6013C13.5521 16.8113 13.4621 16.915 13.4221 17.045C13.3821 17.1737 13.3959 17.3125 13.4221 17.5925L13.4471 17.8462C13.5421 18.8262 13.5896 19.3175 13.3034 19.535C13.0159 19.7537 12.5834 19.555 11.7196 19.1575L11.4971 19.0537C11.2509 18.9412 11.1284 18.885 10.9984 18.885C10.8684 18.885 10.7459 18.9412 10.4996 19.0537L10.2771 19.1575C9.4134 19.555 8.9809 19.7537 8.6934 19.535C8.4059 19.3175 8.45465 18.8262 8.54965 17.8462L8.57465 17.5913C8.6009 17.3125 8.61465 17.1737 8.57465 17.045C8.53465 16.915 8.44465 16.8113 8.2659 16.6013L8.1034 16.4112C7.47465 15.6762 7.15965 15.3088 7.26965 14.9563C7.37965 14.6025 7.8409 14.4988 8.7634 14.29L9.0009 14.2363C9.2634 14.1763 9.39465 14.1462 9.5009 14.0675C9.6059 13.9875 9.6734 13.8663 9.8084 13.6238L9.9309 13.4037Z" stroke="#E51428" stroke-width="1.875"/>
</g>
</svg>
