<svg width="28" height="28" viewBox="0 0 28 28" fill="none" xmlns="http://www.w3.org/2000/svg">
<g id="icon_person">
<g id="icon_person_2">
<g id="evaPersonDoneOutline1">
<path id="evaPersonDoneOutline2" d="M25.27 4.95834C25.0378 4.7544 24.7342 4.65092 24.4258 4.6706C24.1174 4.69029 23.8294 4.83153 23.625 5.06334L21.4433 7.57167L20.7083 6.74334C20.5026 6.51127 20.213 6.37045 19.9035 6.35185C19.5939 6.33326 19.2896 6.43841 19.0575 6.64417C18.8254 6.84993 18.6846 7.13946 18.666 7.44905C18.6474 7.75864 18.7526 8.06294 18.9583 8.295L20.58 10.115C20.6904 10.2373 20.8254 10.3349 20.9763 10.4012C21.1271 10.4676 21.2902 10.5013 21.455 10.5C21.6187 10.4981 21.7801 10.4619 21.9289 10.3935C22.0776 10.3252 22.2103 10.2263 22.3183 10.1033L25.3633 6.60333C25.5687 6.37263 25.6742 6.06991 25.6567 5.76154C25.6392 5.45318 25.5001 5.16433 25.27 4.95834ZM11.6667 12.8333C12.5896 12.8333 13.4919 12.5596 14.2593 12.0469C15.0268 11.5341 15.6249 10.8052 15.9781 9.95253C16.3313 9.0998 16.4237 8.16149 16.2437 7.25625C16.0636 6.351 15.6191 5.51948 14.9665 4.86684C14.3139 4.21419 13.4823 3.76974 12.5771 3.58967C11.6718 3.40961 10.7335 3.50202 9.88081 3.85523C9.02809 4.20844 8.29925 4.80658 7.78647 5.57401C7.27369 6.34144 7 7.24369 7 8.16667C7 9.40435 7.49166 10.5913 8.36683 11.4665C9.242 12.3417 10.429 12.8333 11.6667 12.8333ZM11.6667 5.83334C12.1282 5.83334 12.5793 5.97018 12.963 6.22657C13.3467 6.48296 13.6458 6.84738 13.8224 7.27374C13.999 7.7001 14.0452 8.16926 13.9552 8.62188C13.8651 9.0745 13.6429 9.49026 13.3166 9.81658C12.9903 10.1429 12.5745 10.3651 12.1219 10.4552C11.6693 10.5452 11.2001 10.499 10.7737 10.3224C10.3474 10.1458 9.98296 9.84671 9.72657 9.463C9.47018 9.07928 9.33333 8.62816 9.33333 8.16667C9.33333 7.54783 9.57917 6.95434 10.0168 6.51675C10.4543 6.07917 11.0478 5.83334 11.6667 5.83334ZM11.6667 15.1667C9.50073 15.1667 7.42351 16.0271 5.89196 17.5586C4.36041 19.0902 3.5 21.1674 3.5 23.3333C3.5 23.6428 3.62292 23.9395 3.84171 24.1583C4.0605 24.3771 4.35725 24.5 4.66667 24.5C4.97609 24.5 5.27283 24.3771 5.49162 24.1583C5.71042 23.9395 5.83333 23.6428 5.83333 23.3333C5.83333 21.7862 6.44791 20.3025 7.54188 19.2085C8.63584 18.1146 10.1196 17.5 11.6667 17.5C13.2138 17.5 14.6975 18.1146 15.7915 19.2085C16.8854 20.3025 17.5 21.7862 17.5 23.3333C17.5 23.6428 17.6229 23.9395 17.8417 24.1583C18.0605 24.3771 18.3572 24.5 18.6667 24.5C18.9761 24.5 19.2728 24.3771 19.4916 24.1583C19.7104 23.9395 19.8333 23.6428 19.8333 23.3333C19.8333 21.1674 18.9729 19.0902 17.4414 17.5586C15.9098 16.0271 13.8326 15.1667 11.6667 15.1667Z" fill="#E51428"/>
</g>
</g>
</g>
</svg>
