<svg width="30" height="30" viewBox="0 0 30 30" fill="none" xmlns="http://www.w3.org/2000/svg">
<g id="icon_circle" clip-path="url(#clip0_787_1822)">
<path id="Vector" d="M14.9997 3.33337C12.6922 3.33337 10.4366 4.01761 8.51803 5.29956C6.59945 6.58151 5.10411 8.4036 4.22109 10.5354C3.33806 12.6672 3.10702 15.013 3.55718 17.2761C4.00735 19.5392 5.11849 21.618 6.7501 23.2496C8.38171 24.8812 10.4605 25.9924 12.7236 26.4425C14.9867 26.8927 17.3325 26.6617 19.4643 25.7786C21.5961 24.8956 23.4182 23.4003 24.7002 21.4817C25.9821 19.5631 26.6663 17.3075 26.6663 15C26.6663 11.9058 25.4372 8.93839 23.2493 6.75046C21.0613 4.56254 18.0939 3.33337 14.9997 3.33337Z" fill="#E51428"/>
</g>
<defs>
<clipPath id="clip0_787_1822">
<rect width="30" height="30" fill="white"/>
</clipPath>
</defs>
</svg>
