<svg width="32" height="32" viewBox="0 0 32 32" fill="none" xmlns="http://www.w3.org/2000/svg">
<g id="icon_search">
<path id="Vector" d="M29.0006 27.5861L21.4486 20.0341C23.2634 17.8554 24.1684 15.061 23.9753 12.232C23.7822 9.40309 22.5059 6.75751 20.4118 4.84563C18.3178 2.93376 15.5673 1.90279 12.7326 1.9672C9.89778 2.03161 7.19696 3.18644 5.19194 5.19146C3.18693 7.19647 2.0321 9.89729 1.96769 12.7321C1.90328 15.5669 2.93424 18.3173 4.84612 20.4114C6.75799 22.5054 9.40357 23.7817 12.2325 23.9748C15.0614 24.1679 17.8559 23.2629 20.0346 21.4481L27.5866 29.0001L29.0006 27.5861ZM4.0006 13.0001C4.0006 11.2201 4.52844 9.48003 5.51738 7.99998C6.50631 6.51994 7.91192 5.36639 9.55645 4.6852C11.201 4.00401 13.0106 3.82578 14.7564 4.17305C16.5022 4.52032 18.1059 5.37748 19.3646 6.63615C20.6232 7.89483 21.4804 9.49847 21.8277 11.2443C22.1749 12.9901 21.9967 14.7997 21.3155 16.4443C20.6343 18.0888 19.4808 19.4944 18.0007 20.4833C16.5207 21.4723 14.7806 22.0001 13.0006 22.0001C10.6145 21.9975 8.32682 21.0484 6.63957 19.3612C4.95231 17.6739 4.00325 15.3863 4.0006 13.0001Z" fill="#E51428"/>
</g>
</svg>
