<svg width="75" height="100" viewBox="0 0 75 100" fill="none" xmlns="http://www.w3.org/2000/svg">
<g id="icon_review" clip-path="url(#clip0_674_1222)">
<path id="Vector" fill-rule="evenodd" clip-rule="evenodd" d="M37 21.875C38.6576 21.875 40.2473 21.2165 41.4194 20.0444C42.5915 18.8723 43.25 17.2826 43.25 15.625C43.25 13.9674 42.5915 12.3777 41.4194 11.2056C40.2473 10.0335 38.6576 9.375 37 9.375C35.3424 9.375 33.7527 10.0335 32.5806 11.2056C31.4085 12.3777 30.75 13.9674 30.75 15.625C30.75 17.2826 31.4085 18.8723 32.5806 20.0444C33.7527 21.2165 35.3424 21.875 37 21.875ZM37 3.25713e-07C40.602 -0.000734846 44.0937 1.24307 46.8841 3.52092C49.6744 5.79876 51.5921 8.97074 52.3125 12.5H68.25C69.9076 12.5 71.4973 13.1585 72.6694 14.3306C73.8415 15.5027 74.5 17.0924 74.5 18.75V93.75C74.5 95.4076 73.8415 96.9973 72.6694 98.1694C71.4973 99.3415 69.9076 100 68.25 100H5.75C4.0924 100 2.50268 99.3415 1.33058 98.1694C0.15848 96.9973 -0.5 95.4076 -0.5 93.75V18.75C-0.5 17.0924 0.15848 15.5027 1.33058 14.3306C2.50268 13.1585 4.0924 12.5 5.75 12.5H21.6875C22.4079 8.97074 24.3256 5.79876 27.1159 3.52092C29.9063 1.24307 33.398 -0.000734846 37 3.25713e-07ZM30.75 31.25H52.625V21.875H65.125V90.625H8.875V21.875H21.375V31.25H30.75ZM52.8125 51.75C53.273 51.3209 53.6424 50.8034 53.8986 50.2284C54.1548 49.6534 54.2926 49.0327 54.3037 48.4033C54.3148 47.7739 54.199 47.1487 53.9633 46.565C53.7275 45.9813 53.3766 45.4511 52.9315 45.006C52.4864 44.5609 51.9562 44.21 51.3725 43.9742C50.7888 43.7385 50.1636 43.6227 49.5342 43.6338C48.9048 43.6449 48.2841 43.7827 47.7091 44.0389C47.1341 44.2951 46.6166 44.6645 46.1875 45.125L33.875 57.4375L30.9375 54.5C30.0489 53.672 28.8736 53.2212 27.6592 53.2427C26.4449 53.2641 25.2862 53.756 24.4274 54.6149C23.5685 55.4737 23.0766 56.6324 23.0552 57.8467C23.0337 59.0611 23.4845 60.2364 24.3125 61.125L30.5625 67.375C31.4414 68.2528 32.6328 68.7459 33.875 68.7459C35.1172 68.7459 36.3086 68.2528 37.1875 67.375L52.8125 51.75Z" fill="#E51428"/>
</g>
<defs>
<clipPath id="clip0_674_1222">
<rect width="75" height="100" fill="white"/>
</clipPath>
</defs>
</svg>
