<svg width="16" height="16" viewBox="0 0 16 16" fill="none" xmlns="http://www.w3.org/2000/svg">
<path d="M7.66732 2C9.34702 2 10.9579 2.66726 12.1457 3.85499C13.3334 5.04272 14.0007 6.65363 14.0007 8.33333C14.0007 10.013 13.3334 11.6239 12.1457 12.8117C10.9579 13.9994 9.34702 14.6667 7.66732 14.6667C5.98761 14.6667 4.37671 13.9994 3.18897 12.8117C2.00124 11.6239 1.33398 10.013 1.33398 8.33333C1.33398 6.65363 2.00124 5.04272 3.18897 3.85499C4.37671 2.66726 5.98761 2 7.66732 2ZM7.66732 2.66667C6.16442 2.66667 4.72309 3.26369 3.66038 4.3264C2.59767 5.3891 2.00065 6.83044 2.00065 8.33333C2.00065 9.83623 2.59767 11.2776 3.66038 12.3403C4.72309 13.403 6.16442 14 7.66732 14C8.41148 14 9.14835 13.8534 9.83586 13.5687C10.5234 13.2839 11.1481 12.8665 11.6743 12.3403C12.2005 11.8141 12.6179 11.1894 12.9026 10.5019C13.1874 9.81436 13.334 9.07749 13.334 8.33333C13.334 6.83044 12.737 5.3891 11.6743 4.3264C10.6116 3.26369 9.17021 2.66667 7.66732 2.66667ZM7.33398 4.66667H8.00065V8.28L11.134 10.0867L10.8007 10.6667L7.33398 8.66667V4.66667Z" fill="#505050"/>
</svg>
